<?xml version="1.0" standalone="no"?>
<!DOCTYPE svg PUBLIC "-//W3C//DTD SVG 20010904//EN"
 "http://www.w3.org/TR/2001/REC-SVG-20010904/DTD/svg10.dtd">
<svg version="1.0" xmlns="http://www.w3.org/2000/svg"
 width="422.000000pt" height="100.000000pt" viewBox="0 0 422.000000 100.000000"
 preserveAspectRatio="xMidYMid meet">
<metadata>
Created by potrace 1.16, written by Peter Selinger 2001-2019
</metadata>
<g transform="translate(0.000000,100.000000) scale(0.100000,-0.100000)"
fill="#000000" stroke="none">
<path d="M1318 943 c-19 -32 -83 -142 -143 -245 l-108 -188 -189 0 -189 0 15
28 c8 15 68 120 134 235 l120 207 -122 0 -123 0 -134 -232 -134 -233 -223 -3
c-214 -2 -222 -3 -222 -22 0 -19 7 -20 223 -20 l222 -1 135 -234 134 -235 331
0 331 0 53 91 52 90 -80 139 c-45 76 -81 141 -81 144 0 4 37 6 83 6 l83 0 131
-227 131 -228 121 -3 c67 -1 121 0 121 3 0 6 -219 388 -248 433 l-14 22 88 0
89 -1 130 -229 130 -230 328 0 c191 0 327 4 325 9 -1 5 -23 45 -48 90 l-45 81
-210 0 -210 0 -56 98 -57 97 204 3 c112 1 204 5 204 9 0 3 -9 21 -21 39 l-21
34 49 0 50 0 142 -235 c78 -129 148 -235 156 -235 7 0 28 32 46 71 l32 70 36
-68 36 -68 106 -3 106 -3 28 66 c15 36 31 68 35 70 5 3 26 -26 46 -65 l38 -70
230 2 231 3 148 242 148 242 -138 245 -138 246 -82 0 -81 0 -43 -100 c-24 -55
-47 -96 -51 -92 -4 4 -25 48 -47 97 l-40 90 -338 0 -338 0 -133 -230 -132
-230 -45 -3 c-25 -2 -45 0 -45 4 0 4 9 22 21 40 l21 34 -210 0 -210 0 55 100
55 100 208 0 209 0 37 63 c20 34 46 77 56 95 l20 32 -644 0 -643 0 -38 -70
c-21 -39 -40 -70 -42 -70 -3 0 -29 36 -59 81 l-54 81 -34 -59z m2095 -25 c-11
-18 -48 -84 -83 -145 l-64 -113 -153 0 -153 0 -42 -75 -43 -75 -87 0 c-49 0
-88 3 -88 6 0 3 55 102 123 220 l122 213 243 1 244 0 -19 -32z m213 -78 c33
-74 54 -110 65 -110 11 0 31 34 64 110 l48 110 61 0 61 0 80 -142 c44 -78 99
-177 123 -220 l43 -78 -100 0 -100 0 -58 110 c-37 70 -64 110 -74 110 -11 0
-32 -35 -65 -110 l-48 -111 -34 3 c-34 3 -36 6 -81 110 -32 75 -51 108 -63
108 -10 0 -38 -39 -78 -110 l-62 -110 -94 0 c-52 0 -94 2 -94 4 0 2 39 71 86
152 48 82 104 179 126 217 l39 67 53 0 53 0 49 -110z m-1988 -60 c-1 -5 -37
-68 -78 -139 l-75 -130 -82 -1 c-46 0 -83 3 -83 6 0 4 35 67 77 140 l78 134
83 0 c50 0 82 -4 80 -10z m383 -62 c-23 -40 -58 -103 -79 -140 l-37 -68 -89 0
-88 0 14 23 c8 12 45 75 83 140 l68 117 84 0 85 0 -41 -72z m1588 -180 l10
-28 -86 0 c-98 0 -96 -8 -31 103 l42 72 27 -60 c15 -33 32 -72 38 -87z m280
61 c23 -44 41 -82 38 -85 -2 -3 -40 -4 -84 -2 l-80 3 36 83 c19 45 38 82 41
82 3 0 25 -36 49 -81z m-673 -26 l-34 -58 -137 -3 -137 -3 23 38 c55 92 36 83
185 83 l133 0 -33 -57z m-2080 -220 c37 -65 74 -128 82 -140 l14 -23 -193 0
-194 0 -37 68 c-21 37 -56 100 -79 140 l-41 72 190 0 190 0 68 -117z m3012 78
c-13 -21 -72 -120 -133 -219 l-110 -182 -214 3 -214 2 -40 73 c-23 39 -47 72
-55 72 -7 0 -29 -34 -48 -75 l-35 -75 -87 0 -87 0 -38 75 c-49 95 -63 96 -101
10 -15 -36 -31 -65 -35 -65 -5 0 -240 387 -249 412 -2 4 328 8 733 8 l736 0
-23 -39z"/>
<path d="M3045 819 c-45 -70 -45 -69 32 -69 l69 0 31 55 32 55 -69 0 -70 0
-25 -41z"/>
<path d="M3133 286 c-26 -14 -33 -27 -33 -62 0 -20 6 -34 16 -38 29 -11 179
-7 192 6 18 18 15 52 -6 79 -16 19 -29 22 -85 24 -36 1 -74 -3 -84 -9z"/>
</g>
</svg>
